<?xml version="1.0" encoding="UTF-8"?>
<svg version="1.1" xmlns="http://www.w3.org/2000/svg" width="500" height="500">
<path d="M0 0 C1.6406543 -0.00422974 1.6406543 -0.00422974 3.31445312 -0.00854492 C4.52488281 -0.00652069 5.7353125 -0.00449646 6.98242188 -0.00241089 C8.24892578 -0.00416321 9.51542969 -0.00591553 10.8203125 -0.00772095 C14.30369007 -0.0122948 17.78703815 -0.01050592 21.27041626 -0.00734186 C24.90814293 -0.00481801 28.54586699 -0.00715587 32.18359375 -0.00872803 C38.29362442 -0.01054965 44.40364303 -0.0081436 50.51367188 -0.00338745 C57.58745033 0.00205516 64.66119997 0.0002925 71.73497772 -0.00521386 C77.79781085 -0.00974519 83.86063527 -0.01039543 89.92346954 -0.00777519 C93.54916354 -0.00621253 97.17484397 -0.00601835 100.80053711 -0.00931168 C104.84034952 -0.01272454 108.8801119 -0.00800032 112.91992188 -0.00241089 C114.13035156 -0.00443512 115.34078125 -0.00645935 116.58789062 -0.00854492 C117.68166016 -0.0057251 118.77542969 -0.00290527 119.90234375 0 C120.85878784 0.00037703 121.81523193 0.00075405 122.80065918 0.0011425 C124.95117188 0.12698364 124.95117188 0.12698364 125.95117188 1.12698364 C126.04739224 2.83524052 126.07304816 4.54750478 126.07142639 6.25846863 C126.07349264 7.92304784 126.07349264 7.92304784 126.07560062 9.62125492 C126.07200252 10.85428065 126.06840441 12.08730639 126.06469727 13.35769653 C126.0648178 14.66622558 126.06493834 15.97475462 126.06506252 17.32293606 C126.065289 20.87407474 126.05947805 24.42517997 126.05245209 27.97631073 C126.04677232 31.3041627 126.0464898 34.63201314 126.04577637 37.95986938 C126.04052151 47.7030786 126.02656046 57.44628154 126.01367188 67.18948364 C125.99304688 88.94885864 125.97242188 110.70823364 125.95117188 133.12698364 C82.39117187 133.12698364 38.83117187 133.12698364 -6.04882812 133.12698364 C-6.06945312 111.36760864 -6.09007812 89.60823364 -6.11132812 67.18948364 C-6.12043213 60.30725952 -6.12953613 53.4250354 -6.13891602 46.33425903 C-6.14343262 37.95986938 -6.14343262 37.95986938 -6.14427185 34.04518127 C-6.14581207 31.29854055 -6.14896944 28.55194501 -6.15440369 25.80531311 C-6.16250499 21.65609874 -6.16273572 17.50691878 -6.16235352 13.35769653 C-6.16595162 12.1246708 -6.16954973 10.89164507 -6.17325687 9.62125492 C-6.17187938 8.51153544 -6.17050188 7.40181597 -6.16908264 6.25846863 C-6.17000443 5.28597703 -6.17092623 4.31348543 -6.17187595 3.31152439 C-5.93726923 -0.85358724 -3.62750224 0.00142994 0 0 Z " fill="#39B5FD" transform="translate(190.048828125,182.87301635742188)"/>
<path d="M0 0 C43.56 0 87.12 0 132 0 C132 43.56 132 87.12 132 132 C111.519375 132.185625 91.03875 132.37125 69.9375 132.5625 C60.24427368 132.65446655 60.24427368 132.65446655 50.35522461 132.74829102 C42.45227051 132.81628418 42.45227051 132.81628418 38.7502594 132.8467865 C36.16969623 132.86905051 33.58920152 132.89300782 31.00868225 132.91941833 C27.09559299 132.95935067 23.18245852 132.99082487 19.26928711 133.02172852 C18.12342856 133.03469499 16.97757002 133.04766146 15.79698849 133.06102085 C14.73777974 133.06803988 13.678571 133.07505892 12.58726501 133.08229065 C11.67192458 133.09058679 10.75658415 133.09888292 9.81350613 133.10743046 C6.52397204 132.98182343 3.25884572 132.46554939 0 132 C0 88.44 0 44.88 0 0 Z " fill="#38B5FE" transform="translate(184,0)"/>
<path d="M0 0 C43.56 0 87.12 0 132 0 C132 43.56 132 87.12 132 132 C88.44 132 44.88 132 0 132 C0 88.44 0 44.88 0 0 Z " fill="#38B5FE" transform="translate(184,368)"/>
<path d="M0 0 C43.23 0 86.46 0 131 0 C131 43.89 131 87.78 131 133 C87.77 133 44.54 133 0 133 C0 89.11 0 45.22 0 0 Z " fill="#909090" transform="translate(0,183)"/>
<path d="M0 0 C43.23 0 86.46 0 131 0 C131 43.89 131 87.78 131 133 C87.77 133 44.54 133 0 133 C0 89.11 0 45.22 0 0 Z " fill="#909090" transform="translate(369,183)"/>
<path d="M0 0 C43.23 0 86.46 0 131 0 C131 43.56 131 87.12 131 132 C87.77 132 44.54 132 0 132 C0 88.44 0 44.88 0 0 Z " fill="#38B5FE" transform="translate(369,368)"/>
<path d="M0 0 C43.23 0 86.46 0 131 0 C131 43.56 131 87.12 131 132 C87.77 132 44.54 132 0 132 C0 88.44 0 44.88 0 0 Z " fill="#909090" transform="translate(0,368)"/>
<path d="M0 0 C43.23 0 86.46 0 131 0 C131 43.56 131 87.12 131 132 C87.77 132 44.54 132 0 132 C0 88.44 0 44.88 0 0 Z " fill="#909090" transform="translate(369,0)"/>
<path d="M0 0 C43.23 0 86.46 0 131 0 C131 43.56 131 87.12 131 132 C87.77 132 44.54 132 0 132 C0 88.44 0 44.88 0 0 Z " fill="#909090" transform="translate(0,0)"/>
</svg>
