<?xml version="1.0" encoding="UTF-8"?>
<svg version="1.1" xmlns="http://www.w3.org/2000/svg" width="866" height="288">
<path d="M0 0 C33.87719298 0 33.87719298 0 46.25390625 11.00390625 C54.64047316 19.63759116 56.60557105 28.74441563 56.47314453 40.43286133 C56.05276346 51.19802522 51.76382713 59.58417753 43.9296875 66.9453125 C30.74642235 77.923711 17.24261085 76 0 76 C0 50.92 0 25.84 0 0 Z M9 10 C8.90629376 11.77991924 8.88255729 13.56356739 8.88647461 15.34594727 C8.88655014 16.4870546 8.88662567 17.62816193 8.88670349 18.80384827 C8.89186478 20.0454924 8.89702606 21.28713654 8.90234375 22.56640625 C8.9037587 23.83016586 8.90517365 25.09392548 8.90663147 26.39598083 C8.91129418 29.76124889 8.9202852 33.1264499 8.93133545 36.49169922 C8.94155154 39.9234967 8.94612951 43.35530109 8.95117188 46.78710938 C8.9622262 53.52475824 8.9789829 60.26237525 9 67 C11.20945207 67.04423063 13.41916456 67.07555377 15.62890625 67.1015625 C17.47464233 67.12984131 17.47464233 67.12984131 19.35766602 67.15869141 C27.00395846 66.82555312 33.92398449 64.05456757 39.5 58.7734375 C46.0254251 51.05848178 47.7979966 42.90106892 47 33 C45.40207915 24.79372851 41.16001117 17.89918953 34.25 13.125 C29.17831249 10.26132853 13.79238902 5.20761098 9 10 Z " fill="#38B7FD" transform="translate(623,101)"/>
<path d="M0 0 C13.2 0 26.4 0 40 0 C40 13.2 40 26.4 40 40 C26.8 40 13.6 40 0 40 C0 26.8 0 13.6 0 0 Z " fill="#3BB6FB" transform="translate(100,178)"/>
<path d="M0 0 C13.2 0 26.4 0 40 0 C40 13.2 40 26.4 40 40 C26.8 40 13.6 40 0 40 C0 26.8 0 13.6 0 0 Z " fill="#3BB6FB" transform="translate(100,124)"/>
<path d="M0 0 C13.2 0 26.4 0 40 0 C40.020625 6.414375 40.04125 12.82875 40.0625 19.4375 C40.071604 21.46447021 40.08070801 23.49144043 40.09008789 25.57983398 C40.09300703 27.1769199 40.09555559 28.77400655 40.09765625 30.37109375 C40.10277222 31.20805786 40.10788818 32.04502197 40.11315918 32.90734863 C40.11346924 34.93858265 40.06240188 36.96972471 40 39 C39 40 39 40 35.30639648 40.11352539 C33.66128709 40.11327427 32.01617243 40.10771184 30.37109375 40.09765625 C29.22259949 40.09614563 29.22259949 40.09614563 28.05090332 40.09460449 C25.17975373 40.08935663 22.30862542 40.07539547 19.4375 40.0625 C13.023125 40.041875 6.60875 40.02125 0 40 C0 26.8 0 13.6 0 0 Z " fill="#3BB5FA" transform="translate(100,70)"/>
<path d="M0 0 C12.87 0 25.74 0 39 0 C40.12696619 11.26966186 40.12696619 11.26966186 40.1328125 15.76171875 C40.13474609 17.22254883 40.13474609 17.22254883 40.13671875 18.71289062 C40.13285156 19.69451172 40.12898438 20.67613281 40.125 21.6875 C40.13080078 23.17733398 40.13080078 23.17733398 40.13671875 24.69726562 C40.13542969 25.66728516 40.13414062 26.63730469 40.1328125 27.63671875 C40.13168457 28.49998779 40.13055664 29.36325684 40.12939453 30.25268555 C39.97551319 33.51990584 39.46256692 36.76203154 39 40 C26.13 40 13.26 40 0 40 C0 26.8 0 13.6 0 0 Z " fill="#919191" transform="translate(155,124)"/>
<path d="M0 0 C12.87 0 25.74 0 39 0 C39.5953284 5.95328397 40.12705957 11.38799163 40.1328125 17.28515625 C40.13474609 19.19264648 40.13474609 19.19264648 40.13671875 21.13867188 C40.13285156 22.43353516 40.12898438 23.72839844 40.125 25.0625 C40.12856905 26.4055999 40.13247309 27.74869895 40.13671875 29.09179688 C40.13542969 30.35185547 40.13414062 31.61191406 40.1328125 32.91015625 C40.13168457 34.05621338 40.13055664 35.20227051 40.12939453 36.38305664 C40 39 40 39 39 40 C36.11588825 40.08864512 33.25517191 40.11528526 30.37109375 40.09765625 C29.22259949 40.09614563 29.22259949 40.09614563 28.05090332 40.09460449 C25.17975373 40.08935663 22.30862542 40.07539547 19.4375 40.0625 C13.023125 40.041875 6.60875 40.02125 0 40 C0 26.8 0 13.6 0 0 Z " fill="#919191" transform="translate(155,70)"/>
<path d="M0 0 C1.68742689 0.00025114 3.37485891 0.00581427 5.06225586 0.01586914 C6.24023743 0.01737976 6.24023743 0.01737976 7.4420166 0.0189209 C10.38705904 0.02416901 13.33208073 0.03813016 16.27709961 0.05102539 C22.85647461 0.07165039 29.43584961 0.09227539 36.21459961 0.11352539 C36.21459961 13.31352539 36.21459961 26.51352539 36.21459961 40.11352539 C23.01459961 40.11352539 9.81459961 40.11352539 -3.78540039 40.11352539 C-3.97102539 33.69915039 -4.15665039 27.28477539 -4.34790039 20.67602539 C-4.40921143 18.64905518 -4.47052246 16.62208496 -4.53369141 14.53369141 C-4.57763603 12.93661594 -4.62120087 11.33952996 -4.66430664 9.74243164 C-4.6910144 8.90546753 -4.71772217 8.06850342 -4.74523926 7.20617676 C-4.79761487 5.17592432 -4.79734761 3.14441816 -4.78540039 1.11352539 C-3.78540039 0.11352539 -3.78540039 0.11352539 0 0 Z " fill="#38B6FD" transform="translate(158.785400390625,177.886474609375)"/>
<path d="M0 0 C12.87 0 25.74 0 39 0 C39 13.2 39 26.4 39 40 C26.13 40 13.26 40 0 40 C0 26.8 0 13.6 0 0 Z " fill="#919191" transform="translate(46,178)"/>
<path d="M0 0 C12.87 0 25.74 0 39 0 C39 13.2 39 26.4 39 40 C26.13 40 13.26 40 0 40 C0 26.8 0 13.6 0 0 Z " fill="#919191" transform="translate(46,124)"/>
<path d="M0 0 C12.87 0 25.74 0 39 0 C39 13.2 39 26.4 39 40 C26.13 40 13.26 40 0 40 C0 26.8 0 13.6 0 0 Z " fill="#919191" transform="translate(46,70)"/>
<path d="M0 0 C2.63857404 1.39689214 4.90817521 2.77286718 7.1875 4.6875 C7.1875 3.0375 7.1875 1.3875 7.1875 -0.3125 C10.4875 -0.3125 13.7875 -0.3125 17.1875 -0.3125 C17.21214296 6.36270882 17.23033267 13.0378914 17.24243164 19.71313477 C17.24747325 21.98592591 17.25430637 24.2587138 17.26293945 26.53149414 C17.27501261 29.79053551 17.28072987 33.04953417 17.28515625 36.30859375 C17.29031754 37.33150009 17.29547882 38.35440643 17.30079651 39.40830994 C17.30087204 40.34920975 17.30094757 41.29010956 17.30102539 42.25952148 C17.303246 43.09225082 17.30546661 43.92498016 17.30775452 44.78294373 C17.1875 46.6875 17.1875 46.6875 16.1875 47.6875 C13.51691149 47.82865161 10.86317762 47.72997107 8.1875 47.6875 C7.8575 46.0375 7.5275 44.3875 7.1875 42.6875 C6.28 43.491875 5.3725 44.29625 4.4375 45.125 C0.0211074 49.03952981 -4.58621958 48.97766009 -10.28515625 48.90234375 C-16.65801653 48.36060138 -21.39125426 45.10874574 -25.8125 40.6875 C-30.60448998 32.88907045 -32.1059924 25.23644183 -30.31640625 16.17578125 C-28.12373791 8.87927474 -24.68780237 4.48979961 -18.0625 0.8125 C-11.85872171 -2.04510961 -6.39369433 -2.54387413 0 0 Z M-17.8125 11.6875 C-21.81241583 17.02072111 -21.58302453 23.30070782 -20.8125 29.6875 C-19.59312212 33.42430319 -17.62449306 35.92471864 -14.75 38.625 C-10.07619967 40.31552352 -5.70681061 40.5557325 -0.8125 39.6875 C2.96859936 37.6727046 5.33962902 35.01460241 7.625 31.4375 C8.76289528 25.87445642 8.89445498 20.69674046 7 15.3125 C4.60932199 11.85013874 1.9469239 9.56721195 -1.8125 7.6875 C-8.19654559 6.98709212 -12.90027774 7.13470863 -17.8125 11.6875 Z " fill="#FDFDFD" transform="translate(301.8125,129.3125)"/>
<path d="M0 0 C0.66 0.66 1.32 1.32 2 2 C2.33 0.35 2.66 -1.3 3 -3 C5.97 -3 8.94 -3 12 -3 C12 12.84 12 28.68 12 45 C9.03 45 6.06 45 3 45 C2.505 43.02 2.505 43.02 2 41 C1.071875 41.639375 0.14375 42.27875 -0.8125 42.9375 C-6.42036734 46.56612004 -11.49006617 46.51058305 -18 46 C-23.98214029 44.4877861 -28.44713492 40.99654082 -32.1875 36.1875 C-36.18429228 29.1586584 -37.32089762 21.95677043 -35.2421875 14.15625 C-32.32598708 5.61430862 -29.07490568 1.03745284 -21 -3 C-13.30754222 -5.32312225 -6.70282659 -4.40425536 0 0 Z M-24 11 C-26.91585902 15.69668566 -26.59874995 20.64821032 -26 26 C-24.72966146 30.20241723 -23.05816361 33.11343049 -19.6875 35.9375 C-14.77979513 37.87775541 -11.40091837 38.4511432 -6.3125 36.8125 C-2.36138823 34.65057092 -0.02919107 32.74962481 2.25 28.875 C3.69920256 23.31972351 3.74897624 18.02223586 1.75 12.625 C-0.76164356 8.85753465 -2.65066033 6.44977989 -7 5 C-14.459886 3.96970106 -19.17383973 5.02214239 -24 11 Z " fill="#FCFCFC" transform="translate(464,132)"/>
<path d="M0 0 C5.47781796 4.14952944 8.31732214 8.36826961 10 15 C10 18.3 10 21.6 10 25 C-1.88 24.67 -13.76 24.34 -26 24 C-23.89442719 32.5527864 -23.89442719 32.5527864 -20 36 C-15.36387689 37.54537437 -10.8365888 37.62875654 -6 37 C-2.345794 35.13693041 -0.26323906 32.39485859 2 29 C4.9719385 30.12451727 7.33440687 31.22293791 10 33 C7.52646736 39.07139831 2.44835415 42.68361052 -3 46 C-9.3451116 48.1150372 -16.65335555 47.91346055 -22.875 45.4375 C-29.1901753 42.15406647 -32.66743843 37.72488663 -34.875 31 C-37.04046308 22.44126498 -36.00281972 14.78565265 -31.93359375 6.9453125 C-28.73257273 2.02229007 -24.7404395 -0.87561939 -19.05078125 -2.5859375 C-12.42481663 -3.92375131 -5.90686386 -3.39253688 0 0 Z M-24.9375 12.625 C-25.288125 13.40875 -25.63875 14.1925 -26 15 C-25.67 15.66 -25.34 16.32 -25 17 C-12.625 16.505 -12.625 16.505 0 16 C-1.41103898 10.1641077 -1.41103898 10.1641077 -4.5625 7.625 C-12.55648154 3.84602691 -19.56465643 5.34566356 -24.9375 12.625 Z " fill="#FCFCFC" transform="translate(570,131)"/>
<path d="M0 0 C7.08144619 3.88004239 11.42108155 9.30727288 13.875 17.02734375 C14.99878869 24.58827293 14.30398766 31.66141215 9.875 38.02734375 C3.62793865 44.89081343 -1.59366118 47.98008593 -10.875 48.46484375 C-18.06993165 48.32201632 -23.54319863 46.14722148 -28.97265625 41.41796875 C-34.58796373 35.40255337 -36.75270282 28.71811804 -36.4765625 20.546875 C-35.5157014 13.66070382 -32.03480357 7.82556088 -27.125 3.02734375 C-18.63834172 -2.16449426 -9.40274827 -4.11370237 0 0 Z M-25.125 14.02734375 C-27.76001331 19.29737036 -27.38606567 24.40737716 -26.125 30.02734375 C-23.82451781 34.54614805 -21.62071375 36.77627106 -17.125 39.02734375 C-11.65062552 39.84518435 -6.69737443 39.72929662 -1.625 37.46484375 C2.68907275 33.25862282 5.06409233 29.60072532 5.375 23.58984375 C5.08575507 18.12218158 3.4450914 13.44745634 -0.59765625 9.640625 C-9.13886028 3.88591306 -18.85119586 6.45551117 -25.125 14.02734375 Z " fill="#FCFCFC" transform="translate(803.125,129.97265625)"/>
<path d="M0 0 C2.8125 2.4375 2.8125 2.4375 5 5 C5.721875 5.763125 6.44375 6.52625 7.1875 7.3125 C10.77334801 12.62944705 11.5556263 18.66586015 11 25 C9.38837738 32.5976495 6.18873687 38.05071112 -0.19140625 42.54296875 C-7.3991827 46.67326762 -14.42345685 47.33485757 -22.48046875 45.40625 C-29.47837764 42.80461778 -34.8769158 37.23925281 -38.19921875 30.60546875 C-40.44958593 23.28354235 -39.94196378 14.80256442 -36.390625 8 C-27.76805939 -4.40099323 -12.94955724 -7.91361832 0 0 Z M-26 9 C-29.66078281 13.81681948 -30.65838014 17.52619565 -30.3828125 23.5703125 C-29.57393742 28.70419313 -27.22337188 31.80721241 -23.5 35.4375 C-18.32521052 37.74767388 -13.5770794 37.74973084 -8 37 C-4.05181773 35.19907475 -2.51917268 33.80561278 -0.1875 30.1875 C2.14754416 23.91974989 2.39308461 19.32394713 0.09375 13.0859375 C-1.95268421 9.18309512 -5.07773909 6.96113046 -9 5 C-15.6442481 4.33774651 -20.9272616 4.17471225 -26 9 Z " fill="#FCFCFC" transform="translate(725,132)"/>
<path d="M0 0 C3.3 0 6.6 0 10 0 C10.44915771 0.90355225 10.89831543 1.80710449 11.36108398 2.73803711 C13.02329309 6.08051454 14.68812271 9.42168084 16.35375977 12.76245117 C17.07518262 14.21033497 17.79588806 15.65857645 18.51586914 17.10717773 C19.54907191 19.18567168 20.58482244 21.26287833 21.62109375 23.33984375 C21.94403915 23.99089584 22.26698456 24.64194794 22.59971619 25.31272888 C23.99891885 28.35916506 23.99891885 28.35916506 26 31 C30.62 20.77 35.24 10.54 40 0 C43.3 0 46.6 0 50 0 C49.35389838 4.87998876 47.32799028 8.87800403 45.203125 13.25390625 C44.81754425 14.05988251 44.4319635 14.86585876 44.03469849 15.69625854 C42.77810079 18.32075429 41.51402496 20.94157456 40.25 23.5625 C38.51576586 27.17850955 36.78529563 30.79631646 35.0546875 34.4140625 C34.40803635 35.76379402 34.40803635 35.76379402 33.74832153 37.14079285 C29.32620244 46.3814474 25.0200195 55.67422942 20.74707031 64.98461914 C20.26077148 66.04028076 19.77447266 67.09594238 19.2734375 68.18359375 C18.85497559 69.09681396 18.43651367 70.01003418 18.00537109 70.95092773 C17 73 17 73 16 74 C14.31391034 74.07205511 12.62499341 74.08386068 10.9375 74.0625 C9.55884766 74.04896484 9.55884766 74.04896484 8.15234375 74.03515625 C7.08693359 74.01775391 7.08693359 74.01775391 6 74 C7.27888464 69.86610829 8.83716434 66.18051994 10.890625 62.375 C11.43460937 61.33859375 11.97859375 60.3021875 12.5390625 59.234375 C13.68312203 57.07163232 14.8394819 54.9153533 16.0078125 52.765625 C16.54664063 51.72921875 17.08546875 50.6928125 17.640625 49.625 C18.14110352 48.68914062 18.64158203 47.75328125 19.15722656 46.7890625 C20.7199722 41.61733418 17.7979439 37.34168915 15.390625 32.8046875 C14.88563477 31.8465918 14.38064453 30.88849609 13.86035156 29.90136719 C13.32893555 28.90266602 12.79751953 27.90396484 12.25 26.875 C11.16610274 24.81540084 10.08276379 22.75550777 9 20.6953125 C8.48179687 19.71208008 7.96359375 18.72884766 7.4296875 17.71582031 C5.68543385 14.40245324 3.95400218 11.08427349 2.25 7.75 C1.80140625 6.87859375 1.3528125 6.0071875 0.890625 5.109375 C0 3 0 3 0 0 Z " fill="#FDFDFD" transform="translate(482,129)"/>
<path d="M0 0 C3.3 0 6.6 0 10 0 C10 22.11 10 44.22 10 67 C16.6 67 23.2 67 30 67 C30 69.97 30 72.94 30 76 C20.1 76 10.2 76 0 76 C0 50.92 0 25.84 0 0 Z " fill="#38B6FD" transform="translate(395,101)"/>
<path d="M0 0 C2.97 0 5.94 0 9 0 C9.90648057 3.62592228 10.12664164 6.32393602 10.12939453 10.02197266 C10.13254669 11.23648102 10.13569885 12.45098938 10.13894653 13.70230103 C10.1369223 15.00968231 10.13489807 16.3170636 10.1328125 17.6640625 C10.13348631 19.02118955 10.13445699 20.37831648 10.13571167 21.73544312 C10.13718398 24.57494256 10.1350484 27.41441048 10.13037109 30.25390625 C10.12466318 33.89687916 10.12796245 37.53977856 10.13394356 41.18274879 C10.13755248 43.98280392 10.13640925 46.78284154 10.13381577 49.58289719 C10.13282299 51.58046262 10.13586323 53.57802874 10.13894653 55.57559204 C10.13579437 56.78379608 10.13264221 57.99200012 10.12939453 59.23681641 C10.12820114 60.83754501 10.12820114 60.83754501 10.12698364 62.47061157 C10 65 10 65 9 67 C15.93 67 22.86 67 30 67 C30 69.97 30 72.94 30 76 C20.1 76 10.2 76 0 76 C0 50.92 0 25.84 0 0 Z " fill="#38B7FD" transform="translate(238,101)"/>
<path d="M0 0 C3.47599713 1.87792218 6.13475728 3.78904777 8.09375 7.24609375 C8.09375 7.90609375 8.09375 8.56609375 8.09375 9.24609375 C5.34375 10.87109375 5.34375 10.87109375 2.09375 12.24609375 C-0.10343884 11.53349196 -1.29174433 10.86059942 -2.90625 9.24609375 C-4.90583364 9.20528592 -6.90670254 9.20355019 -8.90625 9.24609375 C-9.23625 10.89609375 -9.56625 12.54609375 -9.90625 14.24609375 C-7.30508583 16.50797564 -4.68202969 17.81402494 -1.53125 19.12109375 C7.72494162 23.19259814 7.72494162 23.19259814 10.0078125 28.28515625 C11.38522367 33.11439301 11.27235302 36.86002181 9.21875 41.453125 C6.75185199 45.3847437 3.50864073 47.77446351 -0.90625 49.24609375 C-7.79132392 49.98034114 -12.31082816 49.38670591 -17.90625 45.24609375 C-20.90449692 42.09004436 -21.83490419 40.53147699 -22.90625 36.24609375 C-19.93625 35.25609375 -16.96625 34.26609375 -13.90625 33.24609375 C-13.24625 35.22609375 -12.58625 37.20609375 -11.90625 39.24609375 C-7.94625 39.24609375 -3.98625 39.24609375 0.09375 39.24609375 C0.09375 36.60609375 0.09375 33.96609375 0.09375 31.24609375 C-1.02644531 30.6428125 -2.14664062 30.03953125 -3.30078125 29.41796875 C-4.77369616 28.61114912 -6.24633823 27.80383124 -7.71875 26.99609375 C-8.45673828 26.60035156 -9.19472656 26.20460937 -9.95507812 25.796875 C-16.91908521 21.952491 -16.91908521 21.952491 -18.90625 18.24609375 C-19.9291561 13.71608102 -20.29906621 11.38089615 -18.78125 6.99609375 C-14.40500227 0.57759708 -7.749951 -3.0650421 0 0 Z " fill="#FCFCFC" transform="translate(350.90625,128.75390625)"/>
<path d="M0 0 C2.97 0 5.94 0 9 0 C9 5.61 9 11.22 9 17 C11.97 17 14.94 17 18 17 C18 19.97 18 22.94 18 26 C15.03 26 12.06 26 9 26 C9 38.87 9 51.74 9 65 C6.03 65 3.06 65 0 65 C0 52.13 0 39.26 0 26 C-1.65 26 -3.3 26 -5 26 C-5 23.03 -5 20.06 -5 17 C-3.35 17 -1.7 17 0 17 C0 11.39 0 5.78 0 0 Z " fill="#FBFBFC" transform="translate(372,112)"/>
<path d="M0 0 C2.97 0 5.94 0 9 0 C9 24.42 9 48.84 9 74 C6.03 74 3.06 74 0 74 C0 49.58 0 25.16 0 0 Z " fill="#FDFDFD" transform="translate(747,129)"/>
<path d="M0 0 C2.4375 1 2.4375 1 4 2 C2.125 7.75 2.125 7.75 1 10 C-0.03060547 9.91298828 -0.03060547 9.91298828 -1.08203125 9.82421875 C-2.43361328 9.75654297 -2.43361328 9.75654297 -3.8125 9.6875 C-5.15248047 9.60048828 -5.15248047 9.60048828 -6.51953125 9.51171875 C-9.16625599 9.75400427 -9.16625599 9.75400427 -10.62524414 12.05102539 C-12.29960854 15.64268718 -12.4583213 18.78632903 -12.4765625 22.671875 C-12.49993179 23.75640961 -12.49993179 23.75640961 -12.52377319 24.862854 C-12.57108462 27.1585594 -12.59900168 29.45396287 -12.625 31.75 C-12.66147793 34.06010904 -12.70202412 36.37004629 -12.74765015 38.67999268 C-12.77490695 40.11441969 -12.7962452 41.5489734 -12.81118774 42.98358154 C-12.88930336 47.88930336 -12.88930336 47.88930336 -14 49 C-16.97 49 -19.94 49 -23 49 C-23 33.16 -23 17.32 -23 1 C-19.7 1 -16.4 1 -13 1 C-12.67 1.66 -12.34 2.32 -12 3 C-11.319375 2.505 -10.63875 2.01 -9.9375 1.5 C-6.33167301 -0.34127336 -4.00517255 -0.3641066 0 0 Z " fill="#FBFBFB" transform="translate(612,128)"/>
<path d="M0 0 C33.87719298 0 33.87719298 0 46.25390625 11.00390625 C54.83661796 19.83951555 56.3508754 28.76820496 56.38085938 40.63061523 C56.29069808 45.11172967 55.67618789 48.78271128 54 53 C52.97504785 49.92514354 52.998401 48.48535546 53.33984375 45.33203125 C53.43330078 44.43935547 53.52675781 43.54667969 53.62304688 42.62695312 C53.72681641 41.69818359 53.83058594 40.76941406 53.9375 39.8125 C54.03740234 38.87212891 54.13730469 37.93175781 54.24023438 36.96289062 C54.48771966 34.64124292 54.74119133 32.32040817 55 30 C54.34 30 53.68 30 53 30 C52.34 29.01 51.68 28.02 51 27 C50.01 26.67 49.02 26.34 48 26 C48 26.66 48 27.32 48 28 C48.66 28.33 49.32 28.66 50 29 C49.505 29.495 49.505 29.495 49 30 C48.83983614 32.35203598 48.72246761 34.70703279 48.625 37.0625 C48.09763944 46.47522127 45.75408461 52.53524158 40 60 C39.01 59.505 39.01 59.505 38 59 C38.61488281 58.14728516 38.61488281 58.14728516 39.2421875 57.27734375 C44.72462293 49.42093508 46.9274312 42.59817687 46 33 C44.52776111 25.52745973 41.07725974 18.83788545 34.73828125 14.42578125 C26.58073338 9.95641829 19.13451672 10 10 10 C9.67 28.81 9.34 47.62 9 67 C8.67 67 8.34 67 8 67 C7.97687149 59.45501767 7.95908231 51.91003899 7.94818783 44.36502934 C7.94296011 40.86191115 7.9358645 37.35881715 7.92456055 33.85571289 C7.91165794 29.83219159 7.90677088 25.80869586 7.90234375 21.78515625 C7.89460182 19.88987938 7.89460182 19.88987938 7.88670349 17.95631409 C7.88662796 16.795186 7.88655243 15.63405792 7.88647461 14.43774414 C7.884254 13.40960098 7.88203339 12.38145782 7.87974548 11.32215881 C8 9 8 9 9 8 C10.55948542 7.84313751 12.12542668 7.74923361 13.69140625 7.68359375 C14.63564453 7.64169922 15.57988281 7.59980469 16.55273438 7.55664062 C17.54595703 7.51732422 18.53917969 7.47800781 19.5625 7.4375 C20.55958984 7.39431641 21.55667969 7.35113281 22.58398438 7.30664062 C25.0558415 7.20019702 27.5278031 7.09818072 30 7 C30 6.01 30 5.02 30 4 C20.93956385 1.73489096 11.33928382 3 2 3 C1.67 23.13 1.34 43.26 1 64 C0.67 64 0.34 64 0 64 C0 42.88 0 21.76 0 0 Z " fill="#4AACE2" transform="translate(623,101)"/>
<path d="M0 0 C0.33 0 0.66 0 1 0 C1.02326485 7.9283559 1.04098674 15.85669731 1.05181217 23.785079 C1.05701024 27.46732739 1.06405142 31.14955225 1.07543945 34.83178711 C1.08637841 38.39146719 1.09229996 41.95112478 1.09487724 45.51082039 C1.09759895 47.51637133 1.10539319 49.52191334 1.11329651 51.52745056 C1.11337204 52.7680574 1.11344757 54.00866425 1.11352539 55.28686523 C1.115746 56.36830307 1.11796661 57.44974091 1.12025452 58.56394958 C0.97467769 62.72353806 0.45963093 66.86332159 0 71 C8.58 71 17.16 71 26 71 C26 69.68 26 68.36 26 67 C22.828262 65.414131 19.36486178 65.62133555 15.875 65.4375 C15.12089844 65.39431641 14.36679687 65.35113281 13.58984375 65.30664062 C11.72678112 65.2005168 9.86341476 65.09974999 8 65 C8 64.67 8 64.34 8 64 C9.32451172 63.96132812 9.32451172 63.96132812 10.67578125 63.921875 C18.82578555 63.53669757 25.56226449 62.36209833 33 59 C33.67933594 58.72414062 34.35867188 58.44828125 35.05859375 58.1640625 C40.47621276 55.6241895 42.74785521 51.2860258 45 46 C46.23595228 42.25175257 46.31941741 38.42018901 46.5625 34.5 C46.64628906 33.1903125 46.73007812 31.880625 46.81640625 30.53125 C46.94678838 28.02347459 47 25.51116248 47 23 C47.66 23 48.32 23 49 23 C49.66 22.34 50.32 21.68 51 21 C51.495 23.97 51.495 23.97 52 27 C52.66 27 53.32 27 54 27 C53.88899025 30.18814591 53.75863821 33.37522876 53.625 36.5625 C53.57859375 37.90538086 53.57859375 37.90538086 53.53125 39.27539062 C53.07359079 49.68713758 50.64184663 56.68690759 42.921875 63.95703125 C29.72328934 74.91739522 16.25743681 73 -1 73 C-0.67 48.91 -0.34 24.82 0 0 Z " fill="#47B5EF" transform="translate(624,104)"/>
<path d="M0 0 C3.3 0 6.6 0 10 0 C10 22.11 10 44.22 10 67 C16.6 67 23.2 67 30 67 C30 69.97 30 72.94 30 76 C20.1 76 10.2 76 0 76 C0 50.92 0 25.84 0 0 Z M2 2 C1.84640994 11.2398918 1.69822825 20.4798496 1.5570364 29.71993923 C1.49131036 34.01003724 1.42369015 38.30008828 1.35180664 42.59008789 C1.28256138 46.72673193 1.21820597 50.86342527 1.15730476 55.00020027 C1.13314649 56.58194831 1.10719755 58.16367 1.07946587 59.74535942 C1.04105633 61.95316315 1.00889696 64.16097305 0.97827148 66.36889648 C0.95828598 67.62798325 0.93830048 68.88707001 0.91770935 70.18431091 C0.67491181 72.90362784 0.67491181 72.90362784 2 74 C3.92667507 74.08748207 5.85651861 74.10697334 7.78515625 74.09765625 C8.95498047 74.09443359 10.12480469 74.09121094 11.33007812 74.08789062 C12.56177734 74.07951172 13.79347656 74.07113281 15.0625 74.0625 C16.29806641 74.05798828 17.53363281 74.05347656 18.80664062 74.04882812 C21.87114117 74.03699608 24.93554721 74.02051173 28 74 C28 72.02 28 70.04 28 68 C21.4 67.67 14.8 67.34 8 67 C8 45.55 8 24.1 8 2 C6.02 2 4.04 2 2 2 Z " fill="#55B1E2" transform="translate(395,101)"/>
<path d="M0 0 C2.97 0 5.94 0 9 0 C9 0.33 9 0.66 9 1 C6.36 1 3.72 1 1 1 C1 25.09 1 49.18 1 74 C10.24 74 19.48 74 29 74 C28.67 72.35 28.34 70.7 28 69 C21.4 68.67 14.8 68.34 8 68 C7.10944434 64.43777736 6.87859585 61.84590727 6.88647461 58.22167969 C6.88655014 57.0607782 6.88662567 55.89987671 6.88670349 54.70379639 C6.89186478 53.45576233 6.89702606 52.20772827 6.90234375 50.921875 C6.9037587 49.64016418 6.90517365 48.35845337 6.90663147 47.03790283 C6.91044099 43.6381636 6.92025786 40.2384674 6.93133545 36.83874512 C6.94158326 33.366461 6.9461363 29.8941699 6.95117188 26.421875 C6.96188159 19.61456571 6.97893916 12.80728492 7 6 C7.66 5.67 8.32 5.34 9 5 C9.15372285 12.78837967 9.30190439 20.57684314 9.4429636 28.36546135 C9.50863444 31.98181821 9.57623148 35.59811789 9.64819336 39.21435547 C9.71753808 42.70260602 9.7818717 46.19091593 9.84269524 49.6793251 C9.87857585 51.66143573 9.91967905 53.64344957 9.96083069 55.62545776 C9.98092697 56.82655182 10.00102325 58.02764587 10.02172852 59.26513672 C10.04171402 60.32658905 10.06169952 61.38804138 10.08229065 62.48165894 C10 65 10 65 9 67 C15.93 67 22.86 67 30 67 C30 69.97 30 72.94 30 76 C20.1 76 10.2 76 0 76 C0 50.92 0 25.84 0 0 Z " fill="#56B7E6" transform="translate(238,101)"/>
<path d="M0 0 C2 3 2 3 2 6 C2.66 6 3.32 6 4 6 C3.88957056 9.22983662 3.75907341 12.45856526 3.625 15.6875 C3.57859375 17.05551758 3.57859375 17.05551758 3.53125 18.45117188 C3.25106802 24.87200895 2.78854313 29.4109795 -2 34 C-3.17574711 36.09989652 -3.17574711 36.09989652 -4 38 C-4.99 38 -5.98 38 -7 38 C-7.2475 38.639375 -7.495 39.27875 -7.75 39.9375 C-9 42 -9 42 -11.125 42.75 C-11.74375 42.8325 -12.3625 42.915 -13 43 C-11.95946459 39.53154863 -10.71847298 36.33543038 -9.0625 33.125 C-3.82764074 22.71388064 -3 13.59614615 -3 2 C-2.34 2 -1.68 2 -1 2 C-0.67 1.34 -0.34 0.68 0 0 Z " fill="#3AB6FC" transform="translate(674,125)"/>
<path d="M0 0 C1.68742689 0.00025114 3.37485891 0.00581427 5.06225586 0.01586914 C6.24023743 0.01737976 6.24023743 0.01737976 7.4420166 0.0189209 C10.38705904 0.02416901 13.33208073 0.03813016 16.27709961 0.05102539 C22.85647461 0.07165039 29.43584961 0.09227539 36.21459961 0.11352539 C36.21459961 13.31352539 36.21459961 26.51352539 36.21459961 40.11352539 C23.01459961 40.11352539 9.81459961 40.11352539 -3.78540039 40.11352539 C-3.97102539 33.69915039 -4.15665039 27.28477539 -4.34790039 20.67602539 C-4.40921143 18.64905518 -4.47052246 16.62208496 -4.53369141 14.53369141 C-4.57763603 12.93661594 -4.62120087 11.33952996 -4.66430664 9.74243164 C-4.6910144 8.90546753 -4.71772217 8.06850342 -4.74523926 7.20617676 C-4.79761487 5.17592432 -4.79734761 3.14441816 -4.78540039 1.11352539 C-3.78540039 0.11352539 -3.78540039 0.11352539 0 0 Z M-2.78540039 1.11352539 C-2.78540039 13.65352539 -2.78540039 26.19352539 -2.78540039 39.11352539 C9.42459961 39.11352539 21.63459961 39.11352539 34.21459961 39.11352539 C34.21459961 26.90352539 34.21459961 14.69352539 34.21459961 2.11352539 C31.09479106 0.55362112 27.7853674 0.99238292 24.36303711 1.01586914 C23.33400269 1.01737976 23.33400269 1.01737976 22.28417969 1.0189209 C19.71930268 1.0241565 17.15444948 1.03811776 14.58959961 1.05102539 C5.98897461 1.08196289 5.98897461 1.08196289 -2.78540039 1.11352539 Z " fill="#5AB2E1" transform="translate(158.785400390625,177.886474609375)"/>
<path d="M0 0 C0.33 0 0.66 0 1 0 C1.15372285 7.78837967 1.30190439 15.57684314 1.4429636 23.36546135 C1.50863444 26.98181821 1.57623148 30.59811789 1.64819336 34.21435547 C1.71753808 37.70260602 1.7818717 41.19091593 1.84269524 44.6793251 C1.87857585 46.66143573 1.91967905 48.64344957 1.96083069 50.62545776 C1.98092697 51.82655182 2.00102325 53.02764587 2.02172852 54.26513672 C2.04171402 55.32658905 2.06169952 56.38804138 2.08229065 57.48165894 C2 60 2 60 1 62 C6.61 62 12.22 62 18 62 C18 62.33 18 62.66 18 63 C12.06 63 6.12 63 0 63 C-0.88760855 59.44956581 -1.12657249 56.85013608 -1.12939453 53.23754883 C-1.13254669 52.07987503 -1.13569885 50.92220123 -1.13894653 49.72944641 C-1.1369223 48.48454941 -1.13489807 47.2396524 -1.1328125 45.95703125 C-1.13376923 44.67769211 -1.13472595 43.39835297 -1.13571167 42.08024597 C-1.13718352 39.37778512 -1.13504953 36.67535739 -1.13037109 33.97290039 C-1.12465693 30.50246216 -1.12796666 27.03210098 -1.13394356 23.56166553 C-1.13841453 20.25595129 -1.13529017 16.9502465 -1.1328125 13.64453125 C-1.13483673 12.39356155 -1.13686096 11.14259186 -1.13894653 9.85371399 C-1.13579437 8.70549667 -1.13264221 7.55727936 -1.12939453 6.37426758 C-1.12859894 5.35818924 -1.12780334 4.3421109 -1.12698364 3.29524231 C-1 1 -1 1 0 0 Z " fill="#48A8DC" transform="translate(246,106)"/>
<path d="M0 0 C2.91461599 1.22720673 3.96072328 2.17144656 5.375 5 C5.29696617 8.19938696 4.81245759 9.53129544 2.625 11.875 C0.375 13 0.375 13 -2.1875 12.875 C-4.84124257 11.92237446 -6.04352277 11.33059802 -7.625 9 C-8.125 6.5625 -8.125 6.5625 -7.625 4 C-5.12004674 1.28033646 -3.75882357 0 0 0 Z " fill="#FBFBFB" transform="translate(752.625,106)"/>
<path d="M0 0 C0 0.99 0 1.98 0 3 C0.99 3.33 1.98 3.66 3 4 C4.68029994 4.97691857 6.34928604 5.97388051 8 7 C7.34 8.32 6.68 9.64 6 11 C5.34 10.67 4.68 10.34 4 10 C4 10.66 4 11.32 4 12 C0.25846263 10.75282088 -1.37517516 8.90112219 -4 6 C-4.33 5.01 -4.66 4.02 -5 3 C-5.66 3 -6.32 3 -7 3 C-6.67 2.01 -6.34 1.02 -6 0 C-3.50907189 -1.24546405 -2.58919267 -0.7767578 0 0 Z " fill="#39B7FD" transform="translate(664,110)"/>
<path d="M0 0 C10.56 0 21.12 0 32 0 C32 0.33 32 0.66 32 1 C23.09 1 14.18 1 5 1 C5 1.66 5 2.32 5 3 C4.01 3.33 3.02 3.66 2 4 C2 5.32 2 6.64 2 8 C1.34 8 0.68 8 0 8 C0 5.36 0 2.72 0 0 Z " fill="#34B1F5" transform="translate(101,179)"/>
<path d="M0 0 C2.97 0 5.94 0 9 0 C8.67 1.32 8.34 2.64 8 4 C7.34 3.67 6.68 3.34 6 3 C6.33 2.34 6.66 1.68 7 1 C5.35 1.33 3.7 1.66 2 2 C2.33 3.32 2.66 4.64 3 6 C2.34 6 1.68 6 1 6 C1.33 7.32 1.66 8.64 2 10 C1.01 10.495 1.01 10.495 0 11 C0 7.37 0 3.74 0 0 Z " fill="#3BB2F0" transform="translate(239,102)"/>
<path d="M0 0 C3.3 0.33 6.6 0.66 10 1 C10 2.32 10 3.64 10 5 C5 3 5 3 0 1 C0 0.67 0 0.34 0 0 Z " fill="#4EADDE" transform="translate(650,111)"/>
</svg>
